<svg width="73" height="67" viewBox="0 0 73 67" fill="none" xmlns="http://www.w3.org/2000/svg">
<path d="M26.5455 67H39.8182V59.5556H46.4545V67H59.7273V59.5556H53.0909V44.6667H46.4545V52.1111H13.2727V59.5556H26.5455V67ZM6.63636 52.1111H13.2727V44.6667H19.9091V37.2222H6.63636V22.3333H0V44.6667H6.63636V52.1111ZM6.63636 22.3333H13.2727V14.8889H6.63636V22.3333ZM19.9091 29.7778H26.5455V22.3333H19.9091V29.7778ZM53.0909 44.6667H59.7273V37.2222H53.0909V44.6667ZM13.2727 14.8889H46.4545V7.44444H53.0909V0H26.5455V7.44444H13.2727V14.8889ZM53.0909 29.7778H59.7273V22.3333H53.0909V29.7778ZM46.4545 22.3333H53.0909V14.8889H46.4545V22.3333ZM59.7273 52.1111H73V14.8889H59.7273V22.3333H66.3636V44.6667H59.7273V52.1111Z" fill="white"/>
</svg>
